<svg width="55" height="30" viewBox="0 0 55 30" fill="none" xmlns="http://www.w3.org/2000/svg">
<rect x="1" y="1" width="53" height="28" fill="white"/>
<rect x="1" y="1" width="53" height="28" stroke="#FBE303" stroke-width="2"/>
<path d="M8.9 16.1475V15.045H15.2V16.1475H8.9ZM16.8506 20.9925L16.8581 19.7925L21.6506 15.48C22.0506 15.12 22.3181 14.78 22.4531 14.46C22.5931 14.135 22.6631 13.8025 22.6631 13.4625C22.6631 13.0475 22.5681 12.6725 22.3781 12.3375C22.1881 12.0025 21.9281 11.7375 21.5981 11.5425C21.2731 11.3475 20.9031 11.25 20.4881 11.25C20.0581 11.25 19.6756 11.3525 19.3406 11.5575C19.0056 11.7575 18.7406 12.025 18.5456 12.36C18.3556 12.695 18.2631 13.06 18.2681 13.455H16.9031C16.9031 12.775 17.0606 12.175 17.3756 11.655C17.6906 11.13 18.1181 10.72 18.6581 10.425C19.2031 10.125 19.8206 9.975 20.5106 9.975C21.1806 9.975 21.7806 10.13 22.3106 10.44C22.8406 10.745 23.2581 11.1625 23.5631 11.6925C23.8731 12.2175 24.0281 12.8125 24.0281 13.4775C24.0281 13.9475 23.9681 14.355 23.8481 14.7C23.7331 15.045 23.5531 15.365 23.3081 15.66C23.0631 15.95 22.7556 16.26 22.3856 16.59L18.4031 20.1675L18.2306 19.7175H24.0281V20.9925H16.8506ZM29.0175 21.225C28.4625 21.225 27.945 21.11 27.465 20.88C26.99 20.65 26.5825 20.335 26.2425 19.935C25.9075 19.53 25.6675 19.065 25.5225 18.54L26.805 18.195C26.895 18.55 27.055 18.8575 27.285 19.1175C27.515 19.3725 27.7825 19.5725 28.0875 19.7175C28.3975 19.8575 28.72 19.9275 29.055 19.9275C29.495 19.9275 29.89 19.8225 30.24 19.6125C30.595 19.3975 30.875 19.115 31.08 18.765C31.285 18.41 31.3875 18.0225 31.3875 17.6025C31.3875 17.1675 31.28 16.775 31.065 16.425C30.855 16.07 30.5725 15.79 30.2175 15.585C29.8625 15.38 29.475 15.2775 29.055 15.2775C28.58 15.2775 28.1725 15.3775 27.8325 15.5775C27.4975 15.7725 27.2325 16.0125 27.0375 16.2975L25.8525 15.8475L26.1825 10.2H31.98V11.4675H26.8275L27.42 10.9125L27.1425 15.435L26.85 15.0525C27.15 14.7325 27.5075 14.485 27.9225 14.31C28.3425 14.135 28.77 14.0475 29.205 14.0475C29.875 14.0475 30.475 14.205 31.005 14.52C31.535 14.83 31.955 15.255 32.265 15.795C32.575 16.33 32.73 16.9325 32.73 17.6025C32.73 18.2675 32.56 18.875 32.22 19.425C31.88 19.97 31.4275 20.4075 30.8625 20.7375C30.3025 21.0625 29.6875 21.225 29.0175 21.225ZM35.7236 21L34.8236 20.1L44.7386 10.2L45.6386 11.1L35.7236 21ZM43.3886 21.225C42.8936 21.225 42.4411 21.105 42.0311 20.865C41.6261 20.62 41.3011 20.295 41.0561 19.89C40.8111 19.48 40.6886 19.025 40.6886 18.525C40.6886 18.035 40.8136 17.585 41.0636 17.175C41.3136 16.765 41.6436 16.4375 42.0536 16.1925C42.4636 15.9475 42.9086 15.825 43.3886 15.825C43.8836 15.825 44.3361 15.9475 44.7461 16.1925C45.1561 16.4325 45.4811 16.7575 45.7211 17.1675C45.9661 17.5725 46.0886 18.025 46.0886 18.525C46.0886 19.025 45.9661 19.48 45.7211 19.89C45.4811 20.295 45.1561 20.62 44.7461 20.865C44.3361 21.105 43.8836 21.225 43.3886 21.225ZM43.3886 20.0475C43.6636 20.0475 43.9161 19.9775 44.1461 19.8375C44.3811 19.6975 44.5661 19.5125 44.7011 19.2825C44.8411 19.0525 44.9111 18.8 44.9111 18.525C44.9111 18.25 44.8411 17.9975 44.7011 17.7675C44.5661 17.5325 44.3811 17.3475 44.1461 17.2125C43.9161 17.0725 43.6636 17.0025 43.3886 17.0025C43.1136 17.0025 42.8611 17.0725 42.6311 17.2125C42.4011 17.3475 42.2161 17.5325 42.0761 17.7675C41.9361 17.9975 41.8661 18.25 41.8661 18.525C41.8661 18.8 41.9361 19.0525 42.0761 19.2825C42.2161 19.5125 42.4011 19.6975 42.6311 19.8375C42.8611 19.9775 43.1136 20.0475 43.3886 20.0475ZM37.0736 15.375C36.5786 15.375 36.1261 15.255 35.7161 15.015C35.3061 14.77 34.9786 14.445 34.7336 14.04C34.4936 13.63 34.3736 13.175 34.3736 12.675C34.3736 12.185 34.4986 11.735 34.7486 11.325C34.9986 10.915 35.3286 10.5875 35.7386 10.3425C36.1486 10.0975 36.5936 9.975 37.0736 9.975C37.5686 9.975 38.0186 10.0975 38.4236 10.3425C38.8336 10.5825 39.1611 10.9075 39.4061 11.3175C39.6511 11.7225 39.7736 12.175 39.7736 12.675C39.7736 13.175 39.6511 13.63 39.4061 14.04C39.1611 14.445 38.8336 14.77 38.4236 15.015C38.0186 15.255 37.5686 15.375 37.0736 15.375ZM37.0736 14.1975C37.3486 14.1975 37.6011 14.1275 37.8311 13.9875C38.0661 13.8475 38.2511 13.6625 38.3861 13.4325C38.5261 13.2025 38.5961 12.95 38.5961 12.675C38.5961 12.4 38.5261 12.1475 38.3861 11.9175C38.2511 11.6825 38.0661 11.4975 37.8311 11.3625C37.6011 11.2225 37.3486 11.1525 37.0736 11.1525C36.7986 11.1525 36.5461 11.2225 36.3161 11.3625C36.0861 11.4975 35.9011 11.6825 35.7611 11.9175C35.6211 12.1475 35.5511 12.4 35.5511 12.675C35.5511 12.95 35.6211 13.2025 35.7611 13.4325C35.9011 13.6625 36.0861 13.8475 36.3161 13.9875C36.5461 14.1275 36.7986 14.1975 37.0736 14.1975Z" fill="#171B24"/>
</svg>
