<svg width="268" height="36" viewBox="0 0 268 36" fill="none" xmlns="http://www.w3.org/2000/svg">
<path d="M41.6855 7.44629C37.1413 7.44629 33.0803 9.77253 33.0803 14.0704C33.0803 18.9993 40.2826 19.3397 40.2826 21.8159C40.2826 22.8585 39.0728 23.7918 37.0066 23.7918C34.0742 23.7918 31.8825 22.4877 31.8825 22.4877L30.9447 26.8247C30.9447 26.8247 33.4695 27.9263 36.8215 27.9263C41.7898 27.9263 45.6993 25.4858 45.6993 21.1144C45.6993 15.9062 38.467 15.5759 38.467 13.2776C38.467 12.4609 39.4601 11.566 41.5205 11.566C43.8452 11.566 45.7418 12.5144 45.7418 12.5144L46.6596 8.32556C46.6596 8.32556 44.5959 7.44629 41.6855 7.44629ZM0.110034 7.76243L0 8.39471C0 8.39471 1.91177 8.74027 3.63364 9.42958C5.85068 10.22 6.00861 10.6802 6.38199 12.1094L10.4508 27.6003H15.905L24.3076 7.76243H18.8659L13.4667 21.2503L11.2635 9.81735C11.0615 8.50886 10.038 7.76243 8.78524 7.76243H0.110034ZM26.4958 7.76243L22.2269 27.6003H27.4161L31.6699 7.76243H26.4958ZM55.4373 7.76243C54.186 7.76243 53.5231 8.42406 53.0366 9.58024L45.4342 27.6003H50.8759L51.9287 24.5969H58.5583L59.1985 27.6003H64L59.8112 7.76243H55.4373ZM56.145 13.122L57.758 20.5661H53.4367L56.145 13.122Z" fill="#8B8D92"/>
<g clip-path="url(#clip0_3866_1616)">
<path d="M88.3477 35.7735V33.4193C88.3477 32.5188 87.7992 31.9291 86.8575 31.9291C86.3867 31.9291 85.8747 32.0845 85.5227 32.5965C85.2484 32.1668 84.8553 31.9291 84.2656 31.9291C83.8725 31.9291 83.4794 32.048 83.1685 32.4777V32.0068H82.3457V35.7735H83.1685V33.6936C83.1685 33.0262 83.5205 32.7108 84.0691 32.7108C84.6176 32.7108 84.8919 33.0628 84.8919 33.6936V35.7735H85.7147V33.6936C85.7147 33.0262 86.1078 32.7108 86.6152 32.7108C87.1638 32.7108 87.438 33.0628 87.438 33.6936V35.7735H88.3477ZM100.553 32.0068H99.2181V30.8686H98.3953V32.0068H97.6502V32.7519H98.3953V34.4799C98.3953 35.3438 98.7473 35.8512 99.6889 35.8512C100.041 35.8512 100.434 35.7324 100.708 35.577L100.471 34.8684C100.233 35.0238 99.9586 35.065 99.7621 35.065C99.3689 35.065 99.2135 34.8273 99.2135 34.4387V32.7519H100.548V32.0068H100.553ZM107.538 31.9245C107.067 31.9245 106.751 32.1622 106.555 32.4731V32.0023H105.732V35.7689H106.555V33.6479C106.555 33.0216 106.829 32.6651 107.341 32.6651C107.497 32.6651 107.693 32.7062 107.853 32.7428L108.091 31.9565C107.926 31.9245 107.693 31.9245 107.538 31.9245ZM96.9828 32.3177C96.5896 32.0434 96.0411 31.9245 95.4514 31.9245C94.5097 31.9245 93.8835 32.3954 93.8835 33.1405C93.8835 33.7667 94.3543 34.1233 95.1771 34.2376L95.5703 34.2787C95.9999 34.3564 96.2377 34.4753 96.2377 34.6718C96.2377 34.9461 95.9222 35.1427 95.3737 35.1427C94.8251 35.1427 94.3909 34.9461 94.1166 34.7496L93.7235 35.3758C94.1532 35.6912 94.7429 35.8467 95.3325 35.8467C96.4296 35.8467 97.0605 35.3347 97.0605 34.6307C97.0605 33.9633 96.5485 33.6113 95.7668 33.4925L95.3737 33.4513C95.0217 33.4102 94.7474 33.3325 94.7474 33.0993C94.7474 32.8251 95.0217 32.6697 95.456 32.6697C95.9268 32.6697 96.3976 32.8662 96.6353 32.9851L96.9828 32.3177ZM118.874 31.9245C118.404 31.9245 118.088 32.1622 117.892 32.4731V32.0023H117.069V35.7689H117.892V33.6479C117.892 33.0216 118.166 32.6651 118.678 32.6651C118.833 32.6651 119.03 32.7062 119.19 32.7428L119.427 31.9657C119.267 31.9245 119.034 31.9245 118.874 31.9245ZM108.361 33.8902C108.361 35.0284 109.147 35.8512 110.363 35.8512C110.911 35.8512 111.304 35.7324 111.698 35.4215L111.304 34.7541C110.989 34.9918 110.678 35.1061 110.322 35.1061C109.654 35.1061 109.183 34.6353 109.183 33.8902C109.183 33.1816 109.654 32.7108 110.322 32.6742C110.674 32.6742 110.989 32.7931 111.304 33.0262L111.698 32.3588C111.304 32.0434 110.911 31.9291 110.363 31.9291C109.147 31.9245 108.361 32.7519 108.361 33.8902ZM115.972 33.8902V32.0068H115.149V32.4777C114.875 32.1257 114.481 31.9291 113.969 31.9291C112.909 31.9291 112.086 32.7519 112.086 33.8902C112.086 35.0284 112.909 35.8512 113.969 35.8512C114.518 35.8512 114.911 35.6547 115.149 35.3027V35.7735H115.972V33.8902ZM112.95 33.8902C112.95 33.2228 113.38 32.6742 114.088 32.6742C114.756 32.6742 115.227 33.1862 115.227 33.8902C115.227 34.5576 114.756 35.1061 114.088 35.1061C113.384 35.065 112.95 34.553 112.95 33.8902ZM103.104 31.9245C102.007 31.9245 101.22 32.7108 101.22 33.8856C101.22 35.065 102.007 35.8467 103.145 35.8467C103.693 35.8467 104.242 35.6912 104.676 35.3347L104.283 34.745C103.968 34.9827 103.574 35.1381 103.186 35.1381C102.674 35.1381 102.167 34.9004 102.048 34.2376H104.832C104.832 34.1187 104.832 34.041 104.832 33.9222C104.868 32.7108 104.16 31.9245 103.104 31.9245ZM103.104 32.6331C103.616 32.6331 103.968 32.9485 104.045 33.5336H102.084C102.162 33.0262 102.514 32.6331 103.104 32.6331ZM123.546 33.8902V30.5166H122.723V32.4777C122.449 32.1257 122.056 31.9291 121.544 31.9291C120.483 31.9291 119.661 32.7519 119.661 33.8902C119.661 35.0284 120.483 35.8512 121.544 35.8512C122.092 35.8512 122.486 35.6547 122.723 35.3027V35.7735H123.546V33.8902ZM120.525 33.8902C120.525 33.2228 120.954 32.6742 121.663 32.6742C122.33 32.6742 122.801 33.1862 122.801 33.8902C122.801 34.5576 122.33 35.1061 121.663 35.1061C120.954 35.065 120.525 34.553 120.525 33.8902ZM92.9784 33.8902V32.0068H92.1555V32.4777C91.8813 32.1257 91.4881 31.9291 90.9762 31.9291C89.9156 31.9291 89.0928 32.7519 89.0928 33.8902C89.0928 35.0284 89.9156 35.8512 90.9762 35.8512C91.5247 35.8512 91.9178 35.6547 92.1555 35.3027V35.7735H92.9784V33.8902ZM89.9202 33.8902C89.9202 33.2228 90.3499 32.6742 91.0585 32.6742C91.7259 32.6742 92.1967 33.1862 92.1967 33.8902C92.1967 34.5576 91.7259 35.1061 91.0585 35.1061C90.3499 35.065 89.9202 34.553 89.9202 33.8902Z" fill="#A2A4A7"/>
<path d="M109.108 3.02148H96.7473V25.2285H109.108V3.02148Z" fill="#8B8D92"/>
<path d="M97.5702 14.1251C97.5702 9.61328 99.6913 5.60889 102.946 3.02158C100.551 1.13823 97.5291 0 94.2332 0C86.4256 0 80.1082 6.31743 80.1082 14.1251C80.1082 21.9327 86.4256 28.2502 94.2332 28.2502C97.5291 28.2502 100.551 27.1119 102.946 25.2286C99.6867 22.6778 97.5702 18.6369 97.5702 14.1251Z" fill="#BABBBE"/>
<path d="M125.784 14.1251C125.784 21.9327 119.466 28.2502 111.659 28.2502C108.363 28.2502 105.341 27.1119 102.946 25.2286C106.242 22.6367 108.322 18.6369 108.322 14.1251C108.322 9.61328 106.201 5.60889 102.946 3.02158C105.337 1.13823 108.358 0 111.654 0C119.466 0 125.784 6.35857 125.784 14.1251Z" fill="#74767C"/>
</g>
<g clip-path="url(#clip1_3866_1616)">
<path d="M171.328 25.2121H158.973V3.01367H171.328V25.2121Z" fill="#8B8D92"/>
<path d="M159.772 14.1138C159.772 9.61473 161.873 5.59527 165.162 3.0146C162.764 1.11905 159.727 0 156.438 0C148.65 0 142.324 6.32608 142.324 14.1138C142.324 21.9015 148.65 28.2276 156.438 28.2276C159.727 28.2276 162.764 27.1085 165.162 25.213C161.873 22.6323 159.772 18.6128 159.772 14.1138Z" fill="#BABBBE"/>
<path d="M188 14.1138C188 21.9015 181.674 28.2276 173.886 28.2276C170.598 28.2276 167.56 27.1085 165.162 25.213C168.451 22.6323 170.552 18.6128 170.552 14.1138C170.552 9.61473 168.451 5.59527 165.162 3.0146C167.56 1.11905 170.598 0 173.886 0C181.674 0 188 6.32608 188 14.1138Z" fill="#74767C"/>
<path d="M175.508 31.9044C175.668 31.9044 175.919 31.9273 176.079 31.9958L175.827 32.7723C175.645 32.7038 175.485 32.6809 175.325 32.6809C174.8 32.6809 174.526 33.0235 174.526 33.6401V35.7412H173.703V31.9958H174.503V32.4525C174.731 32.11 175.051 31.9044 175.508 31.9044ZM172.493 32.7266H171.168V34.4166C171.168 34.782 171.305 35.0332 171.717 35.0332C171.922 35.0332 172.196 34.9647 172.447 34.8277L172.676 35.5356C172.425 35.7183 172.013 35.8325 171.648 35.8325C170.689 35.8325 170.346 35.3073 170.346 34.4394V32.7266H169.593V31.9729H170.346V30.8311H171.168V31.9729H172.493V32.7266ZM162.056 33.5259C162.148 32.9778 162.467 32.6124 163.061 32.6124C163.586 32.6124 163.929 32.9321 164.02 33.5259H162.056ZM164.865 33.8685C164.865 32.7038 164.134 31.9044 163.084 31.9044C161.988 31.9044 161.211 32.7038 161.211 33.8685C161.211 35.0561 162.01 35.8325 163.13 35.8325C163.7 35.8325 164.203 35.6955 164.66 35.3073L164.249 34.7135C163.929 34.9647 163.541 35.1017 163.152 35.1017C162.627 35.1017 162.148 34.8505 162.033 34.1882H164.82C164.842 34.074 164.865 33.9827 164.865 33.8685ZM168.451 32.955C168.222 32.8179 167.766 32.6352 167.286 32.6352C166.829 32.6352 166.578 32.7951 166.578 33.0692C166.578 33.3204 166.852 33.3889 167.218 33.4346L167.606 33.4802C168.428 33.5944 168.908 33.937 168.908 34.5993C168.908 35.3073 168.291 35.8325 167.195 35.8325C166.578 35.8325 166.007 35.6727 165.573 35.3529L165.961 34.7135C166.235 34.919 166.647 35.1017 167.218 35.1017C167.766 35.1017 168.063 34.9419 168.063 34.645C168.063 34.4394 167.857 34.3252 167.4 34.2567L167.012 34.2111C166.167 34.0969 165.71 33.7086 165.71 33.1148C165.71 32.3612 166.327 31.9044 167.263 31.9044C167.857 31.9044 168.405 32.0415 168.793 32.2927L168.451 32.955ZM178.499 32.6581C178.34 32.6581 178.18 32.6809 178.043 32.7494C177.906 32.8179 177.769 32.8865 177.677 33.0006C177.586 33.1148 177.495 33.229 177.426 33.3889C177.358 33.5259 177.335 33.7086 177.335 33.8685C177.335 34.0512 177.358 34.2111 177.426 34.3481C177.495 34.4851 177.563 34.6221 177.677 34.7363C177.791 34.8505 177.906 34.919 178.043 34.9875C178.18 35.0561 178.34 35.0789 178.499 35.0789C178.659 35.0789 178.819 35.0561 178.956 34.9875C179.093 34.919 179.23 34.8505 179.322 34.7363C179.436 34.6221 179.504 34.5079 179.573 34.3481C179.641 34.2111 179.664 34.0284 179.664 33.8685C179.664 33.6858 179.641 33.5259 179.573 33.3889C179.504 33.2519 179.436 33.1148 179.322 33.0006C179.207 32.8865 179.093 32.8179 178.956 32.7494C178.819 32.7038 178.659 32.6581 178.499 32.6581ZM178.499 31.9044C178.796 31.9044 179.07 31.9501 179.299 32.0643C179.55 32.1557 179.755 32.2927 179.938 32.4754C180.121 32.6581 180.258 32.8636 180.372 33.092C180.463 33.3432 180.532 33.5944 180.532 33.8685C180.532 34.1425 180.486 34.4166 180.372 34.645C180.281 34.8962 180.121 35.1017 179.938 35.2616C179.755 35.4443 179.55 35.5813 179.299 35.6727C179.048 35.764 178.773 35.8325 178.499 35.8325C178.203 35.8325 177.928 35.7869 177.7 35.6727C177.449 35.5813 177.243 35.4443 177.061 35.2616C176.878 35.0789 176.741 34.8733 176.627 34.645C176.535 34.3938 176.467 34.1425 176.467 33.8685C176.467 33.5944 176.513 33.3204 176.627 33.092C176.718 32.8408 176.878 32.6352 177.061 32.4754C177.243 32.2927 177.449 32.1557 177.7 32.0643C177.928 31.9501 178.203 31.9044 178.499 31.9044ZM157.306 33.8685C157.306 33.2062 157.74 32.6581 158.448 32.6581C159.133 32.6581 159.567 33.1834 159.567 33.8685C159.567 34.5536 159.11 35.0561 158.448 35.0561C157.74 35.0561 157.306 34.5308 157.306 33.8685ZM160.343 33.8685V31.9958H159.521V32.4525C159.27 32.11 158.882 31.9044 158.334 31.9044C157.283 31.9044 156.461 32.7266 156.461 33.8685C156.461 35.0104 157.283 35.8325 158.334 35.8325C158.859 35.8325 159.247 35.627 159.521 35.2844V35.7412H160.343V33.8685ZM155.753 35.7412V33.3889C155.753 32.4982 155.182 31.9044 154.268 31.9044C153.789 31.9044 153.286 32.0415 152.944 32.5667C152.693 32.1556 152.282 31.9044 151.711 31.9044C151.322 31.9044 150.911 32.0186 150.614 32.4525V31.9958H149.792V35.7412H150.614V33.6629C150.614 33.0235 150.98 32.6581 151.528 32.6581C152.076 32.6581 152.35 33.0006 152.35 33.6401V35.7184H153.172V33.6401C153.172 33.0006 153.56 32.6352 154.086 32.6352C154.634 32.6352 154.908 32.9778 154.908 33.6173V35.6955H155.753V35.7412Z" fill="#A2A4A7"/>
</g>
<g clip-path="url(#clip2_3866_1616)">
<path fill-rule="evenodd" clip-rule="evenodd" d="M210.139 9.65624C210.699 9.65289 212.364 9.50293 213.07 11.8832C213.545 13.4865 214.301 16.1129 215.34 19.7622H215.763C216.876 15.9148 217.641 13.2885 218.058 11.8832C218.77 9.47814 220.552 9.65629 221.265 9.65629L226.762 9.65629V26.7586H221.159V16.6799H220.783L217.659 26.7586H213.443L210.32 16.6725H209.944V26.7586H204.34V9.65629L210.139 9.65624ZM234.809 9.65629V19.7425H235.256L239.056 11.4487C239.793 9.79819 241.365 9.65629 241.365 9.65629H246.788V26.7587H241.067V16.6725H240.62L236.895 24.9663C236.158 26.6093 234.511 26.7587 234.511 26.7587H229.088V9.65629H234.809ZM266.561 17.7835C265.763 20.0447 263.257 21.6641 260.483 21.6641H254.484V26.7587H249.044V17.7835H266.561Z" fill="#8B8D92"/>
<path fill-rule="evenodd" clip-rule="evenodd" d="M260.745 9.65625H248.758C249.044 13.4638 252.323 16.7234 255.717 16.7234H266.939C267.587 13.5588 265.357 9.65625 260.745 9.65625Z" fill="#5D6066"/>
</g>
<defs>
<clipPath id="clip0_3866_1616">
<rect width="46" height="36" fill="white" transform="translate(80)"/>
</clipPath>
<clipPath id="clip1_3866_1616">
<rect width="46" height="36" fill="white" transform="translate(142)"/>
</clipPath>
<clipPath id="clip2_3866_1616">
<rect width="64" height="18" fill="white" transform="translate(204 9)"/>
</clipPath>
</defs>
</svg>
