<svg width="95" height="22" viewBox="0 0 95 22" fill="none" xmlns="http://www.w3.org/2000/svg">
<g clip-path="url(#clip0_1_1332)">
<path d="M14.6666 10.3867V11.0001C14.6658 12.4377 14.2003 13.8365 13.3395 14.988C12.4787 16.1394 11.2688 16.9817 9.89016 17.3893C8.51154 17.797 7.03809 17.748 5.68957 17.2498C4.34104 16.7516 3.18969 15.8308 2.40723 14.6248C1.62476 13.4188 1.25311 11.9921 1.3477 10.5576C1.44229 9.12311 1.99806 7.75762 2.93211 6.66479C3.86615 5.57195 5.12844 4.81033 6.53071 4.4935C7.93298 4.17668 9.4001 4.32163 10.7133 4.90674" stroke="#3BAA35" stroke-width="1.5" stroke-linecap="round" stroke-linejoin="round"/>
<path d="M14.6667 5.6665L8 12.3398L6 10.3398" stroke="#3BAA35" stroke-width="1.5" stroke-linecap="round" stroke-linejoin="round"/>
</g>
<path d="M22.05 17V6.2H26.2575C26.9025 6.2 27.4525 6.3325 27.9075 6.5975C28.3675 6.8625 28.7175 7.2125 28.9575 7.6475C29.2025 8.0775 29.325 8.5425 29.325 9.0425C29.325 9.6275 29.175 10.14 28.875 10.58C28.575 11.02 28.17 11.3225 27.66 11.4875L27.645 11.12C28.34 11.305 28.88 11.645 29.265 12.14C29.65 12.635 29.8425 13.225 29.8425 13.91C29.8425 14.54 29.7125 15.085 29.4525 15.545C29.1975 16.005 28.8275 16.3625 28.3425 16.6175C27.8625 16.8725 27.2925 17 26.6325 17H22.05ZM23.4 15.725H26.3775C26.7775 15.725 27.135 15.6525 27.45 15.5075C27.765 15.3575 28.0125 15.1475 28.1925 14.8775C28.3775 14.6075 28.47 14.2825 28.47 13.9025C28.47 13.5375 28.3875 13.21 28.2225 12.92C28.0625 12.63 27.835 12.4 27.54 12.23C27.25 12.055 26.9125 11.9675 26.5275 11.9675H23.4V15.725ZM23.4 10.7075H26.2425C26.5625 10.7075 26.85 10.64 27.105 10.505C27.365 10.365 27.57 10.17 27.72 9.92C27.875 9.67 27.9525 9.3775 27.9525 9.0425C27.9525 8.5775 27.795 8.1975 27.48 7.9025C27.165 7.6075 26.7525 7.46 26.2425 7.46H23.4V10.7075ZM34.3325 17V8.9H35.6675V12.3125H39.9275V8.9H41.2625V17H39.9275V13.58H35.6675V17H34.3325ZM45.666 17.225C45.061 17.225 44.5535 17.115 44.1435 16.895C43.7385 16.67 43.431 16.375 43.221 16.01C43.016 15.645 42.9135 15.245 42.9135 14.81C42.9135 14.385 42.9935 14.0175 43.1535 13.7075C43.3185 13.3925 43.5485 13.1325 43.8435 12.9275C44.1385 12.7175 44.491 12.5525 44.901 12.4325C45.286 12.3275 45.716 12.2375 46.191 12.1625C46.671 12.0825 47.156 12.01 47.646 11.945C48.136 11.88 48.5935 11.8175 49.0185 11.7575L48.5385 12.035C48.5535 11.315 48.4085 10.7825 48.1035 10.4375C47.8035 10.0925 47.2835 9.92 46.5435 9.92C46.0535 9.92 45.6235 10.0325 45.2535 10.2575C44.8885 10.4775 44.631 10.8375 44.481 11.3375L43.2135 10.955C43.4085 10.245 43.786 9.6875 44.346 9.2825C44.906 8.8775 45.6435 8.675 46.5585 8.675C47.2935 8.675 47.9235 8.8075 48.4485 9.0725C48.9785 9.3325 49.3585 9.7275 49.5885 10.2575C49.7035 10.5075 49.776 10.78 49.806 11.075C49.836 11.365 49.851 11.67 49.851 11.99V17H48.666V15.0575L48.9435 15.2375C48.6385 15.8925 48.211 16.3875 47.661 16.7225C47.116 17.0575 46.451 17.225 45.666 17.225ZM45.8685 16.1075C46.3485 16.1075 46.7635 16.0225 47.1135 15.8525C47.4685 15.6775 47.7535 15.45 47.9685 15.17C48.1835 14.885 48.3235 14.575 48.3885 14.24C48.4635 13.99 48.5035 13.7125 48.5085 13.4075C48.5185 13.0975 48.5235 12.86 48.5235 12.695L48.9885 12.8975C48.5535 12.9575 48.126 13.015 47.706 13.07C47.286 13.125 46.8885 13.185 46.5135 13.25C46.1385 13.31 45.801 13.3825 45.501 13.4675C45.281 13.5375 45.0735 13.6275 44.8785 13.7375C44.6885 13.8475 44.5335 13.99 44.4135 14.165C44.2985 14.335 44.241 14.5475 44.241 14.8025C44.241 15.0225 44.296 15.2325 44.406 15.4325C44.521 15.6325 44.696 15.795 44.931 15.92C45.171 16.045 45.4835 16.1075 45.8685 16.1075ZM51.051 17V15.8525C51.351 15.9075 51.5785 15.8975 51.7335 15.8225C51.8935 15.7425 52.011 15.605 52.086 15.41C52.166 15.21 52.231 14.96 52.281 14.66C52.366 14.185 52.4385 13.655 52.4985 13.07C52.5635 12.485 52.621 11.845 52.671 11.15C52.726 10.45 52.776 9.7 52.821 8.9H58.4835V17H57.1485V10.1675H54.036C54.006 10.6275 53.9685 11.1 53.9235 11.585C53.8835 12.07 53.841 12.5425 53.796 13.0025C53.751 13.4575 53.701 13.8825 53.646 14.2775C53.596 14.6675 53.541 15.005 53.481 15.29C53.386 15.78 53.2535 16.1725 53.0835 16.4675C52.9135 16.7575 52.6685 16.945 52.3485 17.03C52.0285 17.12 51.596 17.11 51.051 17ZM67.22 8.9V17H65.93V11.03L61.685 17H60.5825V8.9H61.8725V14.7875L66.125 8.9H67.22ZM74.1955 17V14.0825C73.9255 14.2175 73.598 14.3325 73.213 14.4275C72.833 14.5225 72.4255 14.57 71.9905 14.57C71.1655 14.57 70.5005 14.385 69.9955 14.015C69.4905 13.645 69.1605 13.1125 69.0055 12.4175C68.9605 12.2075 68.928 11.99 68.908 11.765C68.893 11.54 68.883 11.335 68.878 11.15C68.873 10.965 68.8705 10.83 68.8705 10.745V8.9H70.2205V10.745C70.2205 10.89 70.2255 11.07 70.2355 11.285C70.2455 11.495 70.2705 11.7 70.3105 11.9C70.4105 12.395 70.618 12.7675 70.933 13.0175C71.253 13.2675 71.703 13.3925 72.283 13.3925C72.673 13.3925 73.033 13.3425 73.363 13.2425C73.693 13.1425 73.9705 13.01 74.1955 12.845V8.9H75.538V17H74.1955ZM84.2708 8.9V17H82.9808V11.03L78.7358 17H77.6333V8.9H78.9233V14.7875L83.1758 8.9H84.2708ZM93.0013 8.9V17H91.7113V11.03L87.4663 17H86.3638V8.9H87.6538V14.7875L91.9063 8.9H93.0013Z" fill="#3BAA35"/>
<defs>
<clipPath id="clip0_1_1332">
<rect width="16" height="16" fill="white" transform="translate(0 3)"/>
</clipPath>
</defs>
</svg>
